<svg xmlns="http://www.w3.org/2000/svg" version="1.1" xmlns:xlink="http://www.w3.org/1999/xlink" xmlns:svgjs="http://svgjs.com/svgjs" width="560" height="560" preserveAspectRatio="none" viewBox="0 0 560 560">
    <g mask="url(&quot;#SvgjsMask1157&quot;)" fill="none">
        <path d="M -321.3923858184986,305 C -283.99,267.4 -209.19,112.6 -134.39238581849864,117 C -59.59,121.4 -22.19,325.2 52.60761418150136,327 C 127.41,328.8 164.81,111.6 239.60761418150136,126 C 314.41,140.4 362.53,375 426.6076141815014,399 C 490.69,423 533.32,276.6 560,246" stroke="rgba(174, 242, 242, 1)" stroke-width="2"></path>
        <path d="M -364.90000649608913,316 C -327.5,285.8 -252.7,150.4 -177.90000649608913,165 C -103.1,179.6 -65.7,391.2 9.099993503910866,389 C 83.9,386.8 121.3,137.4 196.09999350391087,154 C 270.9,170.6 310.32,461.8 383.09999350391087,472 C 455.88,482.2 524.62,258.4 560,205" stroke="rgba(174, 242, 242, 1)" stroke-width="2"></path>
        <path d="M -292.2415112376012,292 C -254.84,270.6 -180.04,165.8 -105.24151123760117,185 C -30.44,204.2 6.96,393.2 81.75848876239883,388 C 156.56,382.8 193.96,159.2 268.7584887623988,159 C 343.56,158.8 397.51,367 455.7584887623988,387 C 514.01,407 539.15,284.6 560,259" stroke="rgba(174, 242, 242, 1)" stroke-width="2"></path>
    </g>
    <defs>
        <mask id="SvgjsMask1157">
            <rect width="560" height="560" fill="#ffffff"></rect>
        </mask>
    </defs>
</svg>