<svg id="visual" viewBox="0 0 675 900" width="675" height="900" xmlns="http://www.w3.org/2000/svg" xmlns:xlink="http://www.w3.org/1999/xlink" version="1.1"><g stroke-width="1" stroke-linejoin="bevel"><path d="M312.5 452.9L402.9 453.9L324.5 394.1Z" fill="#15384f" stroke="#15384f"></path><path d="M402.9 453.9L408.9 393.1L324.5 394.1Z" fill="#081a28" stroke="#081a28"></path><path d="M408.9 393.1L409.9 351.3L324.5 394.1Z" fill="#297ea6" stroke="#297ea6"></path><path d="M409.9 351.3L315.5 296.3L324.5 394.1Z" fill="#081a28" stroke="#081a28"></path><path d="M324.5 394.1L218.1 390.1L312.5 452.9Z" fill="#277297" stroke="#277297"></path><path d="M507.3 453.9L484.3 361.3L408.9 393.1Z" fill="#205a7a" stroke="#205a7a"></path><path d="M408.9 393.1L484.3 361.3L409.9 351.3Z" fill="#0c2435" stroke="#0c2435"></path><path d="M409.9 351.3L350.5 269.5L315.5 296.3Z" fill="#19435d" stroke="#19435d"></path><path d="M244.1 292.3L218.1 390.1L324.5 394.1Z" fill="#00101c" stroke="#00101c"></path><path d="M402.9 453.9L507.3 453.9L408.9 393.1Z" fill="#00101c" stroke="#00101c"></path><path d="M218.1 390.1L206.8 447.1L312.5 452.9Z" fill="#205a7a" stroke="#205a7a"></path><path d="M426.9 248.5L350.5 269.5L409.9 351.3Z" fill="#112e42" stroke="#112e42"></path><path d="M206.8 447.1L226.1 528.9L312.5 452.9Z" fill="#1d4e6b" stroke="#1d4e6b"></path><path d="M312.5 452.9L326.5 607.7L402.9 453.9Z" fill="#246688" stroke="#246688"></path><path d="M402.9 453.9L417.9 601.7L507.3 453.9Z" fill="#112e42" stroke="#112e42"></path><path d="M226.1 528.9L263.1 575.7L312.5 452.9Z" fill="#081a28" stroke="#081a28"></path><path d="M263.1 575.7L326.5 607.7L312.5 452.9Z" fill="#00101c" stroke="#00101c"></path><path d="M264.1 226.5L244.1 292.3L315.5 296.3Z" fill="#297ea6" stroke="#297ea6"></path><path d="M315.5 296.3L244.1 292.3L324.5 394.1Z" fill="#0c2435" stroke="#0c2435"></path><path d="M326.5 607.7L417.9 601.7L402.9 453.9Z" fill="#297ea6" stroke="#297ea6"></path><path d="M566.6 469.9L541.3 417.1L507.3 453.9Z" fill="#15384f" stroke="#15384f"></path><path d="M507.3 453.9L541.3 417.1L484.3 361.3Z" fill="#15384f" stroke="#15384f"></path><path d="M522.3 270.5L426.9 248.5L484.3 361.3Z" fill="#00101c" stroke="#00101c"></path><path d="M484.3 361.3L426.9 248.5L409.9 351.3Z" fill="#081a28" stroke="#081a28"></path><path d="M350.5 269.5L264.1 226.5L315.5 296.3Z" fill="#15384f" stroke="#15384f"></path><path d="M501.3 598.7L566.6 469.9L507.3 453.9Z" fill="#081a28" stroke="#081a28"></path><path d="M361.5 660.5L431.9 633.5L417.9 601.7Z" fill="#00101c" stroke="#00101c"></path><path d="M417.9 601.7L501.3 598.7L507.3 453.9Z" fill="#297ea6" stroke="#297ea6"></path><path d="M431.9 633.5L501.3 598.7L417.9 601.7Z" fill="#297ea6" stroke="#297ea6"></path><path d="M371.5 198.6L264.1 226.5L350.5 269.5Z" fill="#297ea6" stroke="#297ea6"></path><path d="M260.1 656.5L361.5 660.5L326.5 607.7Z" fill="#297ea6" stroke="#297ea6"></path><path d="M326.5 607.7L361.5 660.5L417.9 601.7Z" fill="#277297" stroke="#277297"></path><path d="M139.8 350.3L131.8 472.9L206.8 447.1Z" fill="#19435d" stroke="#19435d"></path><path d="M206.8 447.1L131.8 472.9L226.1 528.9Z" fill="#00101c" stroke="#00101c"></path><path d="M165.8 623.5L260.1 656.5L263.1 575.7Z" fill="#297ea6" stroke="#297ea6"></path><path d="M263.1 575.7L260.1 656.5L326.5 607.7Z" fill="#081a28" stroke="#081a28"></path><path d="M139.8 350.3L206.8 447.1L218.1 390.1Z" fill="#277297" stroke="#277297"></path><path d="M139.8 350.3L218.1 390.1L244.1 292.3Z" fill="#246688" stroke="#246688"></path><path d="M585.6 365.3L484.3 361.3L541.3 417.1Z" fill="#1d4e6b" stroke="#1d4e6b"></path><path d="M585.6 365.3L522.3 270.5L484.3 361.3Z" fill="#277297" stroke="#277297"></path><path d="M135.8 241.5L139.8 350.3L244.1 292.3Z" fill="#081a28" stroke="#081a28"></path><path d="M413.9 156.6L371.5 198.6L426.9 248.5Z" fill="#205a7a" stroke="#205a7a"></path><path d="M426.9 248.5L371.5 198.6L350.5 269.5Z" fill="#112e42" stroke="#112e42"></path><path d="M598.6 398.1L585.6 365.3L541.3 417.1Z" fill="#0c2435" stroke="#0c2435"></path><path d="M566.6 469.9L598.6 398.1L541.3 417.1Z" fill="#081a28" stroke="#081a28"></path><path d="M165.8 623.5L263.1 575.7L226.1 528.9Z" fill="#081a28" stroke="#081a28"></path><path d="M131.8 472.9L150.8 564.7L226.1 528.9Z" fill="#246688" stroke="#246688"></path><path d="M371.5 198.6L259.1 194.6L264.1 226.5Z" fill="#205a7a" stroke="#205a7a"></path><path d="M172.8 186.6L135.8 241.5L244.1 292.3Z" fill="#205a7a" stroke="#205a7a"></path><path d="M79.4 374.1L99.4 490.9L131.8 472.9Z" fill="#19435d" stroke="#19435d"></path><path d="M131.8 472.9L99.4 490.9L150.8 564.7Z" fill="#081a28" stroke="#081a28"></path><path d="M73.4 557.7L165.8 623.5L150.8 564.7Z" fill="#246688" stroke="#246688"></path><path d="M150.8 564.7L165.8 623.5L226.1 528.9Z" fill="#081a28" stroke="#081a28"></path><path d="M135.8 241.5L95.4 349.3L139.8 350.3Z" fill="#246688" stroke="#246688"></path><path d="M139.8 350.3L79.4 374.1L131.8 472.9Z" fill="#081a28" stroke="#081a28"></path><path d="M260.1 656.5L329.5 710.4L361.5 660.5Z" fill="#112e42" stroke="#112e42"></path><path d="M361.5 660.5L455.9 728.4L431.9 633.5Z" fill="#081a28" stroke="#081a28"></path><path d="M431.9 633.5L541.3 659.5L501.3 598.7Z" fill="#205a7a" stroke="#205a7a"></path><path d="M233.1 759.4L329.5 710.4L260.1 656.5Z" fill="#00101c" stroke="#00101c"></path><path d="M482.3 165.6L413.9 156.6L426.9 248.5Z" fill="#1d4e6b" stroke="#1d4e6b"></path><path d="M371.5 198.6L319.5 116.8L259.1 194.6Z" fill="#112e42" stroke="#112e42"></path><path d="M95.4 349.3L79.4 374.1L139.8 350.3Z" fill="#1d4e6b" stroke="#1d4e6b"></path><path d="M601.6 614.5L624.6 547.7L501.3 598.7Z" fill="#081a28" stroke="#081a28"></path><path d="M501.3 598.7L624.6 547.7L566.6 469.9Z" fill="#246688" stroke="#246688"></path><path d="M566.6 469.9L675 434.1L598.6 398.1Z" fill="#00101c" stroke="#00101c"></path><path d="M172.8 186.6L244.1 292.3L264.1 226.5Z" fill="#205a7a" stroke="#205a7a"></path><path d="M0 309.3L0 380.1L79.4 374.1Z" fill="#297ea6" stroke="#297ea6"></path><path d="M455.9 728.4L541.3 659.5L431.9 633.5Z" fill="#246688" stroke="#246688"></path><path d="M522.3 270.5L482.3 165.6L426.9 248.5Z" fill="#19435d" stroke="#19435d"></path><path d="M596.6 170.6L482.3 165.6L522.3 270.5Z" fill="#1d4e6b" stroke="#1d4e6b"></path><path d="M541.3 659.5L601.6 614.5L501.3 598.7Z" fill="#205a7a" stroke="#205a7a"></path><path d="M274.1 112.8L172.8 186.6L259.1 194.6Z" fill="#00101c" stroke="#00101c"></path><path d="M259.1 194.6L172.8 186.6L264.1 226.5Z" fill="#112e42" stroke="#112e42"></path><path d="M0 451.9L73.4 557.7L99.4 490.9Z" fill="#246688" stroke="#246688"></path><path d="M99.4 490.9L73.4 557.7L150.8 564.7Z" fill="#15384f" stroke="#15384f"></path><path d="M329.5 710.4L455.9 728.4L361.5 660.5Z" fill="#1d4e6b" stroke="#1d4e6b"></path><path d="M675 655.5L675 603.7L601.6 614.5Z" fill="#297ea6" stroke="#297ea6"></path><path d="M675 300.3L617.6 254.5L585.6 365.3Z" fill="#1d4e6b" stroke="#1d4e6b"></path><path d="M585.6 365.3L617.6 254.5L522.3 270.5Z" fill="#0c2435" stroke="#0c2435"></path><path d="M675 300.3L585.6 365.3L598.6 398.1Z" fill="#1d4e6b" stroke="#1d4e6b"></path><path d="M417.9 58.8L319.5 116.8L413.9 156.6Z" fill="#081a28" stroke="#081a28"></path><path d="M413.9 156.6L319.5 116.8L371.5 198.6Z" fill="#112e42" stroke="#112e42"></path><path d="M675 503.9L566.6 469.9L624.6 547.7Z" fill="#112e42" stroke="#112e42"></path><path d="M675 503.9L675 434.1L566.6 469.9Z" fill="#15384f" stroke="#15384f"></path><path d="M675 603.7L675 503.9L624.6 547.7Z" fill="#19435d" stroke="#19435d"></path><path d="M319.5 116.8L274.1 112.8L259.1 194.6Z" fill="#081a28" stroke="#081a28"></path><path d="M102.4 156.6L135.8 241.5L172.8 186.6Z" fill="#277297" stroke="#277297"></path><path d="M102.4 156.6L75.4 239.5L135.8 241.5Z" fill="#081a28" stroke="#081a28"></path><path d="M135.8 241.5L75.4 239.5L95.4 349.3Z" fill="#19435d" stroke="#19435d"></path><path d="M79.4 374.1L0 451.9L99.4 490.9Z" fill="#00101c" stroke="#00101c"></path><path d="M400.9 794.2L486.3 749.4L455.9 728.4Z" fill="#0c2435" stroke="#0c2435"></path><path d="M455.9 728.4L486.3 749.4L541.3 659.5Z" fill="#112e42" stroke="#112e42"></path><path d="M675 434.1L675 300.3L598.6 398.1Z" fill="#0c2435" stroke="#0c2435"></path><path d="M159.8 749.4L260.1 656.5L165.8 623.5Z" fill="#081a28" stroke="#081a28"></path><path d="M159.8 749.4L233.1 759.4L260.1 656.5Z" fill="#297ea6" stroke="#297ea6"></path><path d="M329.5 710.4L374.5 782.2L455.9 728.4Z" fill="#297ea6" stroke="#297ea6"></path><path d="M234.1 785.2L374.5 782.2L329.5 710.4Z" fill="#15384f" stroke="#15384f"></path><path d="M675 214.5L596.6 170.6L617.6 254.5Z" fill="#15384f" stroke="#15384f"></path><path d="M617.6 254.5L596.6 170.6L522.3 270.5Z" fill="#277297" stroke="#277297"></path><path d="M482.3 165.6L417.9 58.8L413.9 156.6Z" fill="#205a7a" stroke="#205a7a"></path><path d="M0 380.1L0 451.9L79.4 374.1Z" fill="#112e42" stroke="#112e42"></path><path d="M600.6 730.4L601.6 614.5L541.3 659.5Z" fill="#081a28" stroke="#081a28"></path><path d="M601.6 614.5L675 603.7L624.6 547.7Z" fill="#205a7a" stroke="#205a7a"></path><path d="M0 309.3L79.4 374.1L95.4 349.3Z" fill="#19435d" stroke="#19435d"></path><path d="M374.5 782.2L400.9 794.2L455.9 728.4Z" fill="#297ea6" stroke="#297ea6"></path><path d="M305.5 900L400.9 794.2L374.5 782.2Z" fill="#15384f" stroke="#15384f"></path><path d="M81.4 740.4L159.8 749.4L165.8 623.5Z" fill="#1d4e6b" stroke="#1d4e6b"></path><path d="M233.1 759.4L234.1 785.2L329.5 710.4Z" fill="#112e42" stroke="#112e42"></path><path d="M50.4 673.5L165.8 623.5L73.4 557.7Z" fill="#246688" stroke="#246688"></path><path d="M159.8 749.4L234.1 785.2L233.1 759.4Z" fill="#081a28" stroke="#081a28"></path><path d="M163.8 61.8L102.4 156.6L172.8 186.6Z" fill="#15384f" stroke="#15384f"></path><path d="M75.4 239.5L0 309.3L95.4 349.3Z" fill="#15384f" stroke="#15384f"></path><path d="M517.3 48.8L417.9 58.8L482.3 165.6Z" fill="#277297" stroke="#277297"></path><path d="M319.5 116.8L304.5 0L274.1 112.8Z" fill="#0c2435" stroke="#0c2435"></path><path d="M274.1 112.8L163.8 61.8L172.8 186.6Z" fill="#15384f" stroke="#15384f"></path><path d="M0 228.5L0 309.3L75.4 239.5Z" fill="#246688" stroke="#246688"></path><path d="M675 300.3L675 214.5L617.6 254.5Z" fill="#19435d" stroke="#19435d"></path><path d="M596.6 170.6L517.3 48.8L482.3 165.6Z" fill="#19435d" stroke="#19435d"></path><path d="M550.6 846.2L600.6 730.4L486.3 749.4Z" fill="#112e42" stroke="#112e42"></path><path d="M486.3 749.4L600.6 730.4L541.3 659.5Z" fill="#112e42" stroke="#112e42"></path><path d="M600.6 730.4L675 655.5L601.6 614.5Z" fill="#205a7a" stroke="#205a7a"></path><path d="M0 451.9L0 582.7L73.4 557.7Z" fill="#081a28" stroke="#081a28"></path><path d="M0 582.7L50.4 673.5L73.4 557.7Z" fill="#112e42" stroke="#112e42"></path><path d="M0 174.6L0 228.5L75.4 239.5Z" fill="#1d4e6b" stroke="#1d4e6b"></path><path d="M0 712.4L81.4 740.4L50.4 673.5Z" fill="#19435d" stroke="#19435d"></path><path d="M50.4 673.5L81.4 740.4L165.8 623.5Z" fill="#277297" stroke="#277297"></path><path d="M159.8 749.4L163.8 816.2L234.1 785.2Z" fill="#1d4e6b" stroke="#1d4e6b"></path><path d="M610.6 85.8L517.3 48.8L596.6 170.6Z" fill="#205a7a" stroke="#205a7a"></path><path d="M254.1 0L163.8 61.8L274.1 112.8Z" fill="#00101c" stroke="#00101c"></path><path d="M102.4 156.6L0 174.6L75.4 239.5Z" fill="#0c2435" stroke="#0c2435"></path><path d="M304.5 0L319.5 116.8L417.9 58.8Z" fill="#246688" stroke="#246688"></path><path d="M600.6 730.4L675 703.4L675 655.5Z" fill="#205a7a" stroke="#205a7a"></path><path d="M675 214.5L675 145.6L596.6 170.6Z" fill="#205a7a" stroke="#205a7a"></path><path d="M675 145.6L610.6 85.8L596.6 170.6Z" fill="#277297" stroke="#277297"></path><path d="M122.4 801.2L163.8 816.2L159.8 749.4Z" fill="#0c2435" stroke="#0c2435"></path><path d="M234.1 785.2L305.5 900L374.5 782.2Z" fill="#297ea6" stroke="#297ea6"></path><path d="M435.9 0L304.5 0L417.9 58.8Z" fill="#205a7a" stroke="#205a7a"></path><path d="M81.4 740.4L122.4 801.2L159.8 749.4Z" fill="#081a28" stroke="#081a28"></path><path d="M480.3 0L417.9 58.8L517.3 48.8Z" fill="#277297" stroke="#277297"></path><path d="M480.3 0L435.9 0L417.9 58.8Z" fill="#19435d" stroke="#19435d"></path><path d="M65.4 73.8L0 174.6L102.4 156.6Z" fill="#081a28" stroke="#081a28"></path><path d="M0 582.7L0 688.5L50.4 673.5Z" fill="#00101c" stroke="#00101c"></path><path d="M81.4 740.4L0 785.2L122.4 801.2Z" fill="#205a7a" stroke="#205a7a"></path><path d="M304.5 0L254.1 0L274.1 112.8Z" fill="#19435d" stroke="#19435d"></path><path d="M624.6 0L480.3 0L517.3 48.8Z" fill="#297ea6" stroke="#297ea6"></path><path d="M400.9 794.2L518.3 855.2L486.3 749.4Z" fill="#112e42" stroke="#112e42"></path><path d="M600.6 730.4L675 854.2L675 703.4Z" fill="#112e42" stroke="#112e42"></path><path d="M434.9 900L518.3 855.2L400.9 794.2Z" fill="#297ea6" stroke="#297ea6"></path><path d="M0 688.5L0 712.4L50.4 673.5Z" fill="#205a7a" stroke="#205a7a"></path><path d="M518.3 855.2L550.6 846.2L486.3 749.4Z" fill="#15384f" stroke="#15384f"></path><path d="M120.4 0L65.4 73.8L163.8 61.8Z" fill="#15384f" stroke="#15384f"></path><path d="M163.8 61.8L65.4 73.8L102.4 156.6Z" fill="#277297" stroke="#277297"></path><path d="M254.1 0L181.8 0L163.8 61.8Z" fill="#1d4e6b" stroke="#1d4e6b"></path><path d="M675 145.6L675 86.8L610.6 85.8Z" fill="#205a7a" stroke="#205a7a"></path><path d="M610.6 85.8L624.6 0L517.3 48.8Z" fill="#112e42" stroke="#112e42"></path><path d="M224.1 900L234.1 785.2L163.8 816.2Z" fill="#15384f" stroke="#15384f"></path><path d="M224.1 900L305.5 900L234.1 785.2Z" fill="#15384f" stroke="#15384f"></path><path d="M305.5 900L434.9 900L400.9 794.2Z" fill="#205a7a" stroke="#205a7a"></path><path d="M518.3 855.2L512.3 900L550.6 846.2Z" fill="#00101c" stroke="#00101c"></path><path d="M204.8 900L224.1 900L163.8 816.2Z" fill="#15384f" stroke="#15384f"></path><path d="M204.8 900L163.8 816.2L54.4 900Z" fill="#1d4e6b" stroke="#1d4e6b"></path><path d="M181.8 0L120.4 0L163.8 61.8Z" fill="#205a7a" stroke="#205a7a"></path><path d="M54.4 900L163.8 816.2L122.4 801.2Z" fill="#1d4e6b" stroke="#1d4e6b"></path><path d="M434.9 900L512.3 900L518.3 855.2Z" fill="#00101c" stroke="#00101c"></path><path d="M550.6 846.2L675 854.2L600.6 730.4Z" fill="#19435d" stroke="#19435d"></path><path d="M0 712.4L0 785.2L81.4 740.4Z" fill="#1d4e6b" stroke="#1d4e6b"></path><path d="M675 86.8L624.6 0L610.6 85.8Z" fill="#205a7a" stroke="#205a7a"></path><path d="M0 0L0 59.8L65.4 73.8Z" fill="#19435d" stroke="#19435d"></path><path d="M65.4 73.8L0 59.8L0 174.6Z" fill="#15384f" stroke="#15384f"></path><path d="M512.3 900L592.6 900L550.6 846.2Z" fill="#297ea6" stroke="#297ea6"></path><path d="M592.6 900L675 854.2L550.6 846.2Z" fill="#081a28" stroke="#081a28"></path><path d="M675 86.8L675 0L624.6 0Z" fill="#15384f" stroke="#15384f"></path><path d="M0 785.2L54.4 900L122.4 801.2Z" fill="#15384f" stroke="#15384f"></path><path d="M120.4 0L0 0L65.4 73.8Z" fill="#297ea6" stroke="#297ea6"></path><path d="M592.6 900L675 900L675 854.2Z" fill="#081a28" stroke="#081a28"></path><path d="M0 785.2L0 900L54.4 900Z" fill="#205a7a" stroke="#205a7a"></path></g></svg>